<mxfile host="65bd71144e">
    <diagram id="UvGkC7K8fBKDAfQlVkTB" name="Page-1">
        <mxGraphModel dx="1142" dy="625" grid="1" gridSize="10" guides="1" tooltips="1" connect="1" arrows="1" fold="1" page="1" pageScale="1" pageWidth="850" pageHeight="1100" math="0" shadow="0">
            <root>
                <mxCell id="0"/>
                <mxCell id="1" parent="0"/>
                <mxCell id="3" value="" style="rounded=0;whiteSpace=wrap;html=1;" parent="1" vertex="1">
                    <mxGeometry x="195" y="90" width="330" height="580" as="geometry"/>
                </mxCell>
                <mxCell id="4" value="vocalbulary" style="rounded=0;whiteSpace=wrap;html=1;" parent="1" vertex="1">
                    <mxGeometry x="310" y="180" width="120" height="40" as="geometry"/>
                </mxCell>
                <mxCell id="5" value="từ&amp;nbsp;" style="text;html=1;align=center;verticalAlign=middle;resizable=0;points=[];autosize=1;strokeColor=none;fillColor=none;" parent="1" vertex="1">
                    <mxGeometry x="230" y="185" width="40" height="30" as="geometry"/>
                </mxCell>
                <mxCell id="6" value="Nghĩa" style="text;html=1;align=center;verticalAlign=middle;resizable=0;points=[];autosize=1;strokeColor=none;fillColor=none;" parent="1" vertex="1">
                    <mxGeometry x="230" y="245" width="60" height="30" as="geometry"/>
                </mxCell>
                <mxCell id="7" value="meaning" style="rounded=0;whiteSpace=wrap;html=1;" parent="1" vertex="1">
                    <mxGeometry x="310" y="245" width="120" height="50" as="geometry"/>
                </mxCell>
                <mxCell id="15" value="" style="rounded=0;whiteSpace=wrap;html=1;" parent="1" vertex="1">
                    <mxGeometry x="222.5" y="115" width="245" height="30" as="geometry"/>
                </mxCell>
                <mxCell id="16" value="search" style="text;html=1;align=center;verticalAlign=middle;resizable=0;points=[];autosize=1;strokeColor=none;fillColor=none;" parent="1" vertex="1">
                    <mxGeometry x="240" y="115" width="60" height="30" as="geometry"/>
                </mxCell>
                <mxCell id="17" value="" style="group" parent="1" vertex="1" connectable="0">
                    <mxGeometry x="222.5" y="425" width="275" height="125" as="geometry"/>
                </mxCell>
                <mxCell id="9" value="đồng nghĩa" style="text;html=1;align=center;verticalAlign=middle;resizable=0;points=[];autosize=1;strokeColor=none;fillColor=none;" parent="17" vertex="1">
                    <mxGeometry x="15" width="80" height="30" as="geometry"/>
                </mxCell>
                <mxCell id="10" value="Trái nghĩa" style="text;html=1;align=center;verticalAlign=middle;resizable=0;points=[];autosize=1;strokeColor=none;fillColor=none;" parent="17" vertex="1">
                    <mxGeometry x="175" width="80" height="30" as="geometry"/>
                </mxCell>
                <mxCell id="12" value="" style="endArrow=none;html=1;" parent="17" edge="1">
                    <mxGeometry width="50" height="50" relative="1" as="geometry">
                        <mxPoint x="135" y="125" as="sourcePoint"/>
                        <mxPoint x="135" y="10" as="targetPoint"/>
                    </mxGeometry>
                </mxCell>
                <mxCell id="13" value="List đồng nghĩa&amp;nbsp;" style="text;html=1;align=center;verticalAlign=middle;resizable=0;points=[];autosize=1;strokeColor=none;fillColor=none;" parent="17" vertex="1">
                    <mxGeometry y="50" width="110" height="30" as="geometry"/>
                </mxCell>
                <mxCell id="14" value="List trái nghĩa&amp;nbsp;" style="text;html=1;align=center;verticalAlign=middle;resizable=0;points=[];autosize=1;strokeColor=none;fillColor=none;" parent="17" vertex="1">
                    <mxGeometry x="175" y="70" width="100" height="30" as="geometry"/>
                </mxCell>
                <mxCell id="18" value="loại từ" style="text;html=1;align=center;verticalAlign=middle;resizable=0;points=[];autosize=1;strokeColor=none;fillColor=none;" parent="1" vertex="1">
                    <mxGeometry x="235" y="320" width="60" height="30" as="geometry"/>
                </mxCell>
                <mxCell id="19" value="type" style="rounded=0;whiteSpace=wrap;html=1;" parent="1" vertex="1">
                    <mxGeometry x="310" y="310" width="100" height="30" as="geometry"/>
                </mxCell>
                <mxCell id="20" value="ghi chú&amp;nbsp;" style="text;html=1;align=center;verticalAlign=middle;resizable=0;points=[];autosize=1;strokeColor=none;fillColor=none;" parent="1" vertex="1">
                    <mxGeometry x="230" y="360" width="70" height="30" as="geometry"/>
                </mxCell>
                <mxCell id="21" value="note" style="rounded=0;whiteSpace=wrap;html=1;" parent="1" vertex="1">
                    <mxGeometry x="310" y="355" width="110" height="40" as="geometry"/>
                </mxCell>
                <mxCell id="23" value="footer" style="rounded=0;whiteSpace=wrap;html=1;" parent="1" vertex="1">
                    <mxGeometry x="195" y="610" width="335" height="60" as="geometry"/>
                </mxCell>
                <mxCell id="24" value="+" style="text;html=1;align=center;verticalAlign=middle;resizable=0;points=[];autosize=1;strokeColor=none;fillColor=none;strokeWidth=4;fontSize=21;fontStyle=1" parent="1" vertex="1">
                    <mxGeometry x="310" y="420" width="40" height="40" as="geometry"/>
                </mxCell>
                <mxCell id="25" value="+" style="text;html=1;align=center;verticalAlign=middle;resizable=0;points=[];autosize=1;strokeColor=none;fillColor=none;strokeWidth=4;fontSize=21;fontStyle=1" parent="1" vertex="1">
                    <mxGeometry x="465" y="420" width="40" height="40" as="geometry"/>
                </mxCell>
                <mxCell id="26" value="=" style="text;html=1;align=center;verticalAlign=middle;resizable=0;points=[];autosize=1;strokeColor=none;fillColor=none;fontSize=21;" parent="1" vertex="1">
                    <mxGeometry x="480" y="110" width="40" height="40" as="geometry"/>
                </mxCell>
                <mxCell id="37" value="" style="rounded=0;whiteSpace=wrap;html=1;fontSize=11;" vertex="1" parent="1">
                    <mxGeometry x="960" y="480" width="365" height="550" as="geometry"/>
                </mxCell>
                <mxCell id="36" value="" style="group;fontColor=#CCFFCC;" vertex="1" connectable="0" parent="1">
                    <mxGeometry x="990" y="680" width="305" height="170" as="geometry"/>
                </mxCell>
                <mxCell id="27" value="" style="rounded=0;whiteSpace=wrap;html=1;labelBackgroundColor=#FFFFFF;" vertex="1" parent="36">
                    <mxGeometry x="5" width="300" height="170" as="geometry"/>
                </mxCell>
                <mxCell id="28" value="chổ nhập từ&amp;nbsp;" style="rounded=0;whiteSpace=wrap;html=1;" vertex="1" parent="36">
                    <mxGeometry x="43" y="20" width="232" height="30" as="geometry"/>
                </mxCell>
                <mxCell id="29" value="" style="rounded=0;whiteSpace=wrap;html=1;" vertex="1" parent="36">
                    <mxGeometry x="5" y="55" width="300" height="35" as="geometry"/>
                </mxCell>
                <mxCell id="30" value="từ tìm đc" style="rounded=1;whiteSpace=wrap;html=1;fontSize=4;" vertex="1" parent="36">
                    <mxGeometry x="15" y="67.5" width="40" height="12.5" as="geometry"/>
                </mxCell>
                <mxCell id="31" value="từ tìm đc" style="rounded=1;whiteSpace=wrap;html=1;fontSize=4;" vertex="1" parent="36">
                    <mxGeometry x="75" y="66.25" width="40" height="12.5" as="geometry"/>
                </mxCell>
                <mxCell id="32" value="từ tìm đc" style="rounded=1;whiteSpace=wrap;html=1;fontSize=4;" vertex="1" parent="36">
                    <mxGeometry x="142.5" y="66.25" width="40" height="12.5" as="geometry"/>
                </mxCell>
                <mxCell id="33" value="từ tìm đc" style="rounded=1;whiteSpace=wrap;html=1;fontSize=4;" vertex="1" parent="36">
                    <mxGeometry x="215" y="66.25" width="40" height="12.5" as="geometry"/>
                </mxCell>
                <mxCell id="34" value="Thêm&amp;nbsp;" style="rounded=0;whiteSpace=wrap;html=1;fontSize=4;" vertex="1" parent="36">
                    <mxGeometry x="131.5" y="110" width="55" height="20" as="geometry"/>
                </mxCell>
                <mxCell id="35" value="X" style="text;html=1;align=center;verticalAlign=middle;resizable=0;points=[];autosize=1;strokeColor=none;fillColor=none;fontSize=11;" vertex="1" parent="36">
                    <mxGeometry width="30" height="30" as="geometry"/>
                </mxCell>
            </root>
        </mxGraphModel>
    </diagram>
</mxfile>